<?xml version="1.0" encoding="UTF-8"?>
<svg id="Side:_Cover_Well_measurements" data-name="Side: Cover, Well + measurements" xmlns="http://www.w3.org/2000/svg" version="1.1" viewBox="0 0 164.9 188.6">
  <defs>
    <style>
      .cls-1 {
        fill: #f3f3f3;
        stroke-width: 0px;
      }

      .cls-2 {
        stroke: #16212d;
        stroke-linecap: round;
        stroke-width: 2px;
      }

      .cls-2, .cls-3 {
        fill: none;
        stroke-miterlimit: 10;
      }

      .cls-3 {
        stroke: #4a4c4e;
        stroke-width: 1.5px;
      }
    </style>
  </defs>
  <path id="cover" class="cls-1" d="M0,61.4h53.2v64.7c0,12.7,10.3,23,23,23h3c12.7,0,23-10.3,23-23V61.4h62.8v127.2H0V61.4Z"/>
  <path id="well" class="cls-2" d="M43.2,61.4h10v64.7c0,12.7,10.3,23,23,23h3c12.7,0,23-10.3,23-23V61.4h10"/>
  <g id="height_measurement" data-name="height measurement">
    <g>
      <line class="cls-3" x1="125.5" y1="61.4" x2="125.5" y2="74.5"/>
      <line class="cls-3" x1="130" y1="61.4" x2="120.9" y2="61.4"/>
    </g>
    <g>
      <line class="cls-3" x1="125.5" y1="149.1" x2="125.5" y2="135.9"/>
      <line class="cls-3" x1="120.9" y1="149.1" x2="130" y2="149.1"/>
    </g>
  </g>
  <g id="width_measurement" data-name="width measurement">
    <g>
      <line class="cls-3" x1="102" y1="160.9" x2="97.8" y2="160.9"/>
      <line class="cls-3" x1="102" y1="165.4" x2="102" y2="156.3"/>
    </g>
    <g>
      <line class="cls-3" x1="53.3" y1="160.9" x2="57.4" y2="160.9"/>
      <line class="cls-3" x1="53.3" y1="156.3" x2="53.3" y2="165.4"/>
    </g>
  </g>
</svg>